<svg width="21" height="21" viewBox="0 0 21 21" fill="none" xmlns="http://www.w3.org/2000/svg">
<g id="Like">
<g id="Union">
<mask id="path-1-inside-1_6_43" fill="white">
<path fill-rule="evenodd" clip-rule="evenodd" d="M10.37 2.17401C9.3268 1.06109 7.84343 0.365753 6.19766 0.365753C3.03987 0.365753 0.47998 2.92565 0.47998 6.08343C0.47998 7.49865 0.994143 8.79377 1.84586 9.7922H1.80496L10.37 20.4549L18.935 9.7922H18.8942C19.7459 8.79377 20.26 7.49865 20.26 6.08343C20.26 2.92565 17.7001 0.365753 14.5423 0.365753C12.8966 0.365753 11.4132 1.06109 10.37 2.17401Z"/>
</mask>
<path d="M10.37 2.17401L8.66449 3.7727L10.37 5.59218L12.0755 3.7727L10.37 2.17401ZM1.84586 9.7922V12.1298H6.91266L3.62432 8.27507L1.84586 9.7922ZM1.80496 9.7922V7.45455H-3.07123L-0.0175217 11.2561L1.80496 9.7922ZM10.37 20.4549L8.5475 21.9188L10.37 24.1877L12.1925 21.9188L10.37 20.4549ZM18.935 9.7922L20.7575 11.2561L23.8112 7.45455H18.935V9.7922ZM18.8942 9.7922L17.1157 8.27507L13.8273 12.1298H18.8942V9.7922ZM12.0755 0.575321C10.6088 -0.989357 8.51616 -1.97189 6.19766 -1.97189V2.7034C7.1707 2.7034 8.04474 3.11154 8.66449 3.7727L12.0755 0.575321ZM6.19766 -1.97189C1.74883 -1.97189 -1.85767 1.6346 -1.85767 6.08343H2.81763C2.81763 4.21669 4.33092 2.7034 6.19766 2.7034V-1.97189ZM-1.85767 6.08343C-1.85767 8.0754 -1.13162 9.90377 0.0674005 11.3093L3.62432 8.27507C3.1199 7.68377 2.81763 6.92189 2.81763 6.08343H-1.85767ZM1.84586 7.45455H1.80496V12.1298H1.84586V7.45455ZM-0.0175217 11.2561L8.5475 21.9188L12.1925 18.9909L3.62745 8.32825L-0.0175217 11.2561ZM12.1925 21.9188L20.7575 11.2561L17.1125 8.32825L8.5475 18.9909L12.1925 21.9188ZM18.935 7.45455H18.8942V12.1298H18.935V7.45455ZM17.9224 6.08343C17.9224 6.92189 17.6201 7.68377 17.1157 8.27507L20.6726 11.3093C21.8716 9.90377 22.5977 8.0754 22.5977 6.08343H17.9224ZM14.5423 2.7034C16.4091 2.7034 17.9224 4.21669 17.9224 6.08343H22.5977C22.5977 1.6346 18.9912 -1.97189 14.5423 -1.97189V2.7034ZM12.0755 3.7727C12.6953 3.11153 13.5693 2.7034 14.5423 2.7034V-1.97189C12.2239 -1.97189 10.1312 -0.989357 8.66449 0.575321L12.0755 3.7727Z" fill="black" mask="url(#path-1-inside-1_6_43)"/>
</g>
</g>
</svg>
