<svg width="20" height="20" viewBox="0 0 20 20" fill="none" xmlns="http://www.w3.org/2000/svg">
<g id="Shop">
<path id="Union" fill-rule="evenodd" clip-rule="evenodd" d="M8.3765 5.15565H12.1431C11.8106 4.40909 11.4488 3.86584 11.1016 3.51873C10.7343 3.15147 10.4509 3.06491 10.2598 3.06491C10.0688 3.06491 9.78537 3.15147 9.41801 3.51873C9.07081 3.86584 8.70903 4.40909 8.3765 5.15565ZM14.6558 5.15565H17.6623H20V7.4933V17.0713V19.4089H17.6623H2.55756H0.21991V17.0713V7.4933V5.15565H2.55756H5.86383C5.95501 4.89707 6.05146 4.64746 6.15294 4.40762C6.57696 3.40538 7.11176 2.51888 7.76527 1.86554C8.42337 1.20761 9.26742 0.727264 10.2598 0.727264C11.2522 0.727264 12.0963 1.20761 12.7544 1.86554C13.4079 2.51888 13.9427 3.40538 14.3667 4.40762C14.4682 4.64746 14.5646 4.89707 14.6558 5.15565ZM12.8969 7.4933C13.1991 8.82101 13.3767 10.364 13.3767 12.0259H15.7143C15.7143 10.4225 15.5638 8.88583 15.2868 7.4933H17.6623V17.0713H2.55756V7.4933H5.23284C4.95588 8.88583 4.80531 10.4225 4.80531 12.0259H7.14296C7.14296 10.364 7.32057 8.82101 7.62273 7.4933H12.8969Z" fill="black"/>
</g>
</svg>
